<?xml version="1.0" standalone="no"?>
<!DOCTYPE svg PUBLIC "-//W3C//DTD SVG 20010904//EN"
 "http://www.w3.org/TR/2001/REC-SVG-20010904/DTD/svg10.dtd">
<svg version="1.0" xmlns="http://www.w3.org/2000/svg"
 width="512.000000pt" height="512.000000pt" viewBox="0 0 512.000000 512.000000"
 preserveAspectRatio="xMidYMid meet">
<metadata>
Created by potrace 1.11, written by Peter Selinger 2001-2013
</metadata>
<g transform="translate(0.000000,512.000000) scale(0.100000,-0.100000)"
fill="#000000" stroke="none">
<path d="M2349 4549 c-383 -40 -769 -204 -1064 -451 -166 -139 -331 -325 -420
-475 -5 -10 -20 -35 -33 -56 -127 -212 -228 -517 -259 -777 -12 -97 -8 -426 5
-500 6 -36 14 -83 18 -105 12 -76 52 -220 89 -320 206 -552 648 -989 1203
-1189 78 -28 243 -72 306 -82 21 -3 48 -8 60 -10 91 -19 390 -25 521 -11 867
91 1595 763 1749 1612 3 17 8 41 11 55 28 134 26 490 -3 650 -30 158 -27 146
-62 261 -121 391 -358 735 -680 983 -47 37 -89 70 -95 74 -100 80 -456 247
-588 277 -12 2 -49 11 -82 20 -177 44 -484 65 -676 44z"/>
</g>
</svg>
